<svg width="1603" height="1022" viewBox="0 0 1603 1022" fill="none" xmlns="http://www.w3.org/2000/svg">
<ellipse cx="850" cy="937" rx="753" ry="85" fill="#D9D9D9"/>
<g clip-path="url(#clip0_1618_635)">
<path d="M1121.21 274.365C1109.48 296.191 1098.33 358.725 1085.4 374.917C1072.44 391.205 1034.93 412.952 1028.47 416.635C1021.97 420.344 1015.85 420.252 1009.41 423.948C1002.92 427.613 996.418 431.326 993.836 434.558C991.223 437.806 987.54 445.23 986.474 448.821C985.392 452.394 986.519 459.352 988.825 462.062C991.064 464.736 993.371 468.928 993.125 460.839C992.937 455.968 996.773 448.246 998.632 447.071C1000.5 445.883 1008.13 443.297 1008.13 443.297L1011.4 446.931C1011.4 446.931 999.527 449.085 997.269 455.253C994.997 461.408 996.633 462.711 1003.01 458.055C1009.41 453.416 1019.79 451.11 1025.48 445.37C1035.35 435.58 1034.75 437.637 1039.8 434.558C1044.91 431.528 1093.89 409.427 1111.93 395.782C1132.45 380.283 1164.33 320.568 1163.45 308.348C1162.57 296.111 1139.51 240.275 1121.21 274.364L1121.21 274.365Z" fill="#D6A092"/>
<path d="M1102.15 131.184C1091.88 135.87 1086.75 152.965 1078.19 160.76C1069.61 168.569 1063.33 178.407 1068.5 187.781C1073.63 197.138 1077.65 209.388 1068.17 219.626C1061.88 226.355 1074.14 235.896 1072.99 239.009C1070.27 246.37 1067.41 252.912 1061.7 257.568C1058.04 260.536 1060.3 273.545 1063.11 276.145C1067.41 280.043 1063.62 288.566 1058.47 296.344C1053.76 303.521 1062 319.731 1080.28 327C1092.21 331.796 1092.45 318.831 1115.84 315.724C1134.51 313.264 1126.11 240.199 1126.11 210.612C1126.11 181.022 1102.15 131.185 1102.15 131.185L1102.15 131.184Z" fill="#BA784A"/>
<path d="M1104.43 288.904L1093.98 272.511C1101.52 267.499 1110.85 260.261 1115.98 256.192C1118.81 242.999 1113.78 222.63 1099.25 212.975C1099.25 212.975 1165.32 134.169 1163.28 159.942C1161.24 185.752 1141.18 241.592 1182.21 262.006C1172.14 265.982 1154.51 289.571 1139.73 299.624C1123.02 311.133 1097.06 300.737 1103.65 290.452L1104.43 288.904L1104.43 288.904Z" fill="#EAC4B2"/>
<path d="M1169.88 125.975C1180.16 130.658 1185.55 144.841 1194.11 152.624C1202.66 160.401 1217.62 189.747 1212.48 199.103C1207.33 208.428 1210.3 200.852 1219.78 211.072C1226.08 217.834 1218.02 229.93 1219.15 233.038C1221.87 240.43 1220.41 242.627 1226.71 246.463C1236.44 252.325 1238.23 267.732 1232.45 272.309C1227.88 275.926 1232.83 292.092 1239.1 282.98C1245.1 274.286 1239.21 314.671 1220.96 321.957C1209 326.693 1178.88 315.723 1155.5 312.615C1136.83 310.124 1144.02 233.669 1144.02 204.096C1144.02 174.492 1169.88 125.975 1169.88 125.975Z" fill="#A0593A"/>
<path d="M843.138 916.593C843.138 920.477 846.308 923.618 850.175 923.618H855.463C859.33 923.618 862.474 920.478 862.474 916.593V890.226C862.474 886.342 859.33 883.184 855.463 883.184H850.175C846.308 883.184 843.138 886.342 843.138 890.226V916.593ZM733.09 899.038C733.09 902.905 736.198 906.044 740.096 906.044H745.339C749.237 906.044 752.389 902.905 752.389 899.038V872.635C752.389 868.754 749.238 865.629 745.339 865.629H740.096C736.198 865.629 733.09 868.755 733.09 872.635V899.038ZM741.394 562.504C744.226 564.126 808.567 578.866 813.596 578.866L912.815 554.261C917.827 554.261 915.599 550.951 908.47 549.294L835.528 542.832C827.64 542.244 819.055 542.258 815.035 542.258L727.492 551.197C723.436 551.197 716.679 559.519 718.706 560.712L741.396 562.505L741.394 562.504Z" fill="black"/>
<path d="M716.043 874.17C716.043 884.315 717.666 893.873 726.622 895.5L840.354 913.056C850.144 914.861 855.883 908.926 855.883 898.219V579.118C855.883 568.398 847.869 559.243 838.139 559.984L732.238 551.956C723.299 550.084 716.042 557.927 716.042 568.042V874.171L716.043 874.17Z" fill="black"/>
<path d="M833.796 895.39C833.796 906.11 840.57 913.997 848.939 913.036L915.276 900.23C923.426 899.3 930.963 898.126 931.875 855.005V584.759C931.13 556.953 919.87 548.986 905.117 550.021L848.939 555.791C840.569 556.395 833.796 565.581 833.796 576.301V895.39ZM796.073 376.636L796.704 378.877V577.986L796.073 580.2V580.432L762.572 577.52L762.292 577.275L761.656 575.047V378.148L762.292 375.921V375.706L795.854 376.416L796.073 376.635V376.636ZM805.863 577.986V378.877C805.863 373.357 802.535 367.526 796.073 367.263L762.352 366.535C755.824 366.829 752.5 372.629 752.5 378.149V575.048C752.5 580.555 755.824 586.355 761.998 586.632L795.95 589.587C802.536 589.293 805.863 583.479 805.863 577.986Z" fill="#232121"/>
<path d="M759.15 370.218C758.935 375.15 760.834 379.28 763.403 379.451L793.672 379.745C796.241 379.929 798.513 376.079 798.762 371.143C798.928 366.163 796.995 362.081 794.461 361.909L764.222 361.571C761.623 361.412 759.365 365.28 759.15 370.217V370.218ZM1360.5 769.067C1375.58 724.263 1393.24 712.692 1406.42 712.876C1424.94 711.916 1445.54 737.981 1447.33 753.695H1447.29C1447.86 757.514 1451.4 760.145 1455.17 759.588C1459.05 759.014 1461.67 755.444 1461.1 751.639C1457.32 729.612 1436.06 699.929 1406.42 698.925C1383.95 699.079 1362.62 718.138 1347.26 764.722C1346.05 768.374 1348.05 772.272 1351.7 773.538L1353.89 773.894C1356.79 773.894 1359.51 772.022 1360.5 769.067H1360.5Z" fill="black"/>
<path d="M1320.66 949.23C1309.06 944.403 1278.07 928.891 1278.07 917.307C1278.07 905.688 1282.74 761.24 1288.14 752.269C1296.85 737.761 1497.85 737.204 1505.6 737.204C1513.33 737.204 1531.73 745.929 1531.73 745.929L1344.85 832.126L1320.66 949.229V949.23Z" fill="#232121"/>
<path d="M1313.4 939.58C1313.71 946.692 1319.23 951.519 1325.82 950.344L1538.99 933.205C1544.71 932.184 1548.89 926.015 1548.38 919.473L1537.12 753.602C1536.62 747.368 1531.74 742.852 1526.17 743.518L1320.39 757.409C1314.04 758.211 1307.06 764.49 1307.32 771.233L1313.4 939.58Z" fill="black"/>
<path d="M1437.11 884.069C1437.5 889.712 1441.3 893.688 1445.59 892.992L1512.61 888.817C1516.8 888.151 1519.77 883.152 1519.36 877.694L1515.96 813.8C1515.53 808.386 1511.89 804.536 1507.76 805.093L1441.36 810.398C1437.07 811.016 1433.84 815.979 1434.22 821.516L1437.11 884.069H1437.11ZM1337.93 892.728C1338.18 898.499 1342.11 902.629 1346.75 901.9L1418.01 897.507C1422.4 896.78 1425.71 891.601 1425.37 885.955L1422.51 820.36C1422.18 814.804 1418.41 810.814 1414.06 811.385L1343.46 816.738C1338.89 817.417 1335.43 822.587 1335.66 828.26L1337.93 892.728L1337.93 892.728Z" fill="#232121"/>
<path d="M1377.93 779.755C1392.98 734.872 1410.71 723.363 1423.88 723.517C1442.37 722.526 1462.97 748.635 1464.76 764.318H1464.75C1465.29 768.141 1468.86 770.785 1472.65 770.246C1476.44 769.641 1479.13 766.085 1478.56 762.292C1474.79 740.251 1453.5 710.477 1423.88 709.583C1401.35 709.737 1380.05 728.778 1364.71 775.38C1363.45 778.997 1365.46 782.943 1369.14 784.179L1371.31 784.551C1374.25 784.551 1376.96 782.661 1377.93 779.755H1377.93Z" fill="black"/>
<path d="M1048.2 526.465C1040.43 503.28 982.854 521.269 974.966 533.44C964.508 549.558 978.894 561.544 986.751 563.508C994.607 565.459 1048.2 526.465 1048.2 526.465H1048.2Z" fill="#A3D0EF"/>
<path d="M916.701 710.929L919.656 705.87L914.18 711.933C912.401 713.511 910.686 713.849 912.865 709.381C915.154 704.866 917.197 701.599 917.197 701.599L912.553 708.469L909.199 711.81C907.976 711.639 907.792 709.394 908.642 707.785C909.475 706.193 909.383 706.163 910.76 703.935C911.61 702.449 912.014 701.151 912.014 701.151L908.037 706.873C907.156 708.096 905.998 709.455 906.121 706.689C906.244 703.935 908.69 699.31 909.571 697.859L911.01 695.167L910.313 694.715L906.538 696.558C905.271 696.233 906.104 694.979 907.901 692.182C907.963 691.998 911.194 687.061 913.605 684.957L913.733 684.821C918.635 680.489 924.637 677.056 924.637 677.056C924.637 677.056 943.244 649.833 949.444 628.626C954.644 610.716 982.358 617.319 978.197 632.462C975.181 643.721 956.236 665.533 944.249 678.139L944.279 678.201L935.089 689.477C932.635 694.116 929.385 701.433 925.764 705.111C923.199 707.742 917.443 712.24 916.701 710.93V710.929Z" fill="#D6A092"/>
<path d="M974.065 555.051C967.804 557.848 958.645 553.271 954.735 568.287C950.788 583.339 950.788 616.02 943.611 624.513C936.421 633.018 920.738 665.686 922.672 671.561C924.636 677.471 939.052 689.892 940.999 689.892C942.95 689.892 957.331 668.299 958.646 657.829C959.948 647.404 974.066 555.051 974.066 555.051H974.065Z" fill="#2B55B2"/>
<path d="M953.402 710.881C942.656 783.776 955.261 798.503 959.141 817.405C959.141 817.405 970.277 873.657 962.372 898.683C961.771 900.574 952.073 910.039 937.364 919.737C933.033 922.583 935.338 932.974 958.045 924.315C971.905 918.979 980.766 920.399 980.766 920.399C980.766 920.399 999.233 919.039 989.89 899.796C985.453 890.672 1004.66 846.188 993.064 812.143C987.821 796.71 997.795 748.837 990.373 718.755C988.316 710.434 953.403 710.881 953.403 710.881H953.402Z" fill="black"/>
<path d="M990.879 710.635C987.539 784.271 1002.88 806.606 1008.65 825.029C1008.65 825.029 1023.33 880.43 1017.98 906.093C1017.59 908.044 1010.88 917.878 997.267 929.015C993.247 932.263 996.588 942.378 1018.32 931.461C1031.57 924.779 1040.5 925.274 1040.5 925.274C1040.5 925.274 1058.35 923.587 1047.1 905.413C1041.77 896.75 1061.98 846.219 1040.88 809.592C1032.78 795.47 1044.72 739.341 1034.33 710.141C1031.45 702.095 990.878 710.636 990.878 710.636L990.879 710.635Z" fill="#232121"/>
<path d="M980.533 515.792C974.641 518.962 962.251 521.483 962.251 521.483C962.251 521.483 968.902 539.888 974.904 542.243C980.95 544.562 995.305 524.193 995.305 524.193L985.667 511.895L980.533 515.792Z" fill="#380F01"/>
<path d="M1035.87 507.581C1029.6 522.272 1035.69 539.087 1039.56 544.593C1041.69 547.623 1030.88 567.656 1016.62 572.154C1005.08 575.789 980.707 565.196 984.31 558.655C985.455 556.66 996.543 546.264 996.898 544.221C999.02 531.941 990.681 521.623 987.138 515.205C985.143 511.54 1035.87 507.581 1035.87 507.581Z" fill="#D6A092"/>
<path d="M974.065 555.05C968.005 558.08 960.596 568.427 958.632 577.66C955.041 594.194 955.537 621.264 952.954 635.881C948.841 659.114 936.544 788.217 940.44 790.939C951.625 798.779 998.705 806.408 1022.08 802.181C1022.08 802.181 1014.99 567.992 1003.45 567.545C988.744 566.957 987.955 553.748 994.237 547.842L974.065 555.05V555.05Z" fill="#4686D3"/>
<path d="M974.854 484.752C971.886 512.176 983.934 532.731 999.464 532.357C1027.2 531.695 1052.45 511.557 1054.02 484.054C1055.56 456.524 1041.37 447.554 1016.71 446.19C992.072 444.814 978.738 449.531 974.854 484.752Z" fill="#D6A092"/>
<path d="M1041.95 542.924C1050.37 546.357 1064.67 549.264 1069.45 551.508C1071.06 552.267 1063.22 549.527 1059.28 561.409C1053.28 579.393 1061.95 583.725 1061.91 584.795C1061.36 594.121 1044.01 620.432 1040.49 640.877C1036.51 664.25 1055.66 678.276 1072.52 785.606C1073.12 789.394 1062.73 797.005 1052.16 799.741C1041.61 802.543 997.685 807.799 965.516 799C961.448 797.886 968.528 694.826 976.806 640.955C986.053 581.161 998.075 566.789 998.075 566.789C998.075 566.789 1013.21 569.529 1030.2 553.89C1037.65 547.024 1041.95 542.925 1041.95 542.925L1041.95 542.924Z" fill="#2B55B2"/>
<path d="M993.125 460.838C982.252 452.889 976.898 468.554 976.898 468.554C976.898 468.554 974.548 452.626 1003.72 443.73C1015.34 440.187 1033.77 443.748 1033.88 445.895C1034.04 448.03 993.125 460.838 993.125 460.838Z" fill="#380F01"/>
<path d="M990.866 461.224C995.798 459.492 1019.62 459.26 1027.65 474.587C1033.28 485.337 1032.11 483.619 1032.11 483.619C1032.11 483.619 1042.33 483.018 1038.83 494.326C1037.02 500.139 1033.28 503.59 1033.28 503.59L1029.59 520.558C1029.59 520.558 1061.01 511.557 1059.24 481.611C1057.47 451.666 1045.25 444.506 1028.77 444.409C1015.47 444.317 990.866 461.224 990.866 461.224Z" fill="#380F01"/>
<path d="M934.135 914.554C936.112 911.568 951.458 902.519 957.1 893.395C962.795 884.205 961.48 869.39 957.551 859.381C957.551 859.381 980.644 863.743 996.34 861.13C995.94 866.356 990.789 894.815 991.64 901.343C992.275 902.737 992.999 904.732 993.573 907.902C994.998 915.465 990.68 920.122 990.68 920.122C990.68 920.122 984.787 923.849 976.9 922.472C967.868 920.85 961.541 924.853 947.634 926.945C934.135 928.94 934.209 926.231 933.328 923.679C932.14 921.513 932.833 916.519 934.135 914.555V914.554Z" fill="#001C49"/>
<path d="M993.683 926.388C994.64 922.95 1010.17 911.613 1014.87 901.963C1019.65 892.265 1016.87 877.664 1011.98 868.089C1011.98 868.089 1035.38 870.132 1050.71 865.971C1050.85 871.662 1048.14 905.089 1050.51 907.61V907.655C1051.16 908.97 1051.86 910.566 1052.55 912.947C1054.7 920.339 1050.48 925.398 1050.48 925.398C1050.48 925.398 1043.83 929.309 1037.38 929.108C1028.24 928.8 1033.09 933.593 1019.43 937.092C1006.2 940.433 995.586 935.961 994.425 933.58C994.363 933.427 992.43 930.967 993.683 926.39V926.388Z" fill="#2B2B2B"/>
<path d="M1040.79 645.856C1031.19 653.713 957.998 645.856 953.605 642.375C949.26 638.898 951.891 652.85 951.891 652.85C951.891 652.85 1003.32 670.282 1043.39 659.808C1046.98 658.882 1040.79 645.857 1040.79 645.857V645.856Z" fill="#4686D3"/>
<path d="M1035.57 524.719C1027.69 535.202 995.909 552.17 984.119 540.402C977.179 551.74 975.412 554.787 975.412 554.787C975.412 554.787 1005.48 592.695 1041.64 546.944C1056.08 528.692 1035.57 524.72 1035.57 524.72V524.719Z" fill="white"/>
<path d="M1008.31 568.287C1015.5 580.06 1013.54 637.583 1013.54 641.493C1004.4 634.969 993.293 638.897 993.293 638.897C993.293 638.897 996.296 571.167 998.076 566.787C999.839 562.411 1008.31 568.286 1008.31 568.286V568.287ZM993.727 563.061C978.68 574.167 972.17 635.619 976.729 659.158C968.903 665.037 957.784 657.829 957.784 657.829C957.784 657.829 964.974 570.251 982.609 561.746C1000.26 553.271 993.727 563.061 993.727 563.061ZM991.53 536.908C988.934 541.717 987.632 548.259 988.934 549.557C990.245 550.858 980.643 557.847 978.03 555.669C975.413 553.472 978.029 544.765 982.388 540.402C986.75 536.022 991.529 536.908 991.529 536.908H991.53Z" fill="white"/>
<path d="M1060.47 549.978C1067.98 547.114 1084.18 543.077 1098.35 531.029C1110.21 520.896 1122.52 505.801 1128.71 497.821C1128.58 495.594 1128.77 493.538 1129.2 491.771L1128.91 492.205C1128.68 487.518 1130.46 479.71 1134.46 474.668C1138.45 469.638 1139.92 466.902 1141.04 468.543C1142.12 470.152 1141.21 472.3 1139.78 474.791L1138.28 477.342C1140.57 474.839 1143.03 472.27 1143.71 471.388C1144.98 469.749 1149.13 465.202 1152.17 463.948C1155.22 462.712 1154.14 464.584 1153.18 466.022C1152.17 467.443 1148.37 472.796 1148.37 472.796C1148.37 472.796 1149.68 471.822 1150.95 470.213C1152.17 468.635 1153.66 468.201 1155.14 466.64C1156.6 465.079 1158.45 464.058 1159.1 465.325L1156.73 470.459L1150.95 478.395C1150.95 478.395 1153.78 474.774 1157.89 470.459C1161.98 466.128 1161.98 467.289 1161.33 470.862C1161.08 471.959 1160.4 473.462 1159.61 475.084L1161.14 474.05C1162.92 474.405 1160.2 482.617 1158.37 486.501C1155.72 492.069 1148.83 498.624 1144.72 503.237L1143.26 505.385C1138.22 515.824 1122.21 544.411 1111.24 553.394C1099.17 563.294 1072.75 592.572 1060.73 583.865C1047.58 574.412 1060.47 549.978 1060.47 549.978Z" fill="#EAC4B2"/>
<path d="M1052.19 502.228C1061.18 509.575 1077.14 512.219 1081.56 514.82C1085.87 517.341 1073.94 557.402 1054.62 557.848C1044.37 558.019 1029.6 520.559 1029.6 520.559L1052.19 502.228Z" fill="#380F01"/>
<path d="M1080.73 364.324C1070.09 371.05 1033.4 407.725 1031.27 413.864C1035.83 417.81 1048.81 432.269 1048.81 432.269C1048.81 432.269 1092.11 417.266 1094.59 403.455C1097.03 389.644 1095.66 382.046 1095.66 382.046L1080.73 364.324Z" fill="black"/>
<path d="M1079.29 639.394C1076.62 659.268 1077.5 718.242 1083.27 726.687C1089.03 735.136 1104.44 863.48 1104.53 871.986C1104.69 887.112 1090.55 924.73 1068.34 935.481C1081.07 943.259 1102.38 936.455 1112.11 919.347C1118.39 908.306 1140.52 904.93 1142.97 897.386C1148.48 880.326 1136.78 882.523 1136.5 857.032C1136.26 831.51 1153.43 753.402 1135.12 713.929C1123.9 689.771 1128.83 655.402 1125.95 646.909C1123.02 638.404 1079.29 639.394 1079.29 639.394V639.394Z" fill="#D6A092"/>
<path d="M1140.19 877.309C1145.32 881.285 1150.53 893.347 1147.61 903.48C1144.69 913.625 1138.38 937.91 1140.49 945.968C1135.13 947.297 1134.99 946.073 1134.99 946.073C1134.99 946.073 1135.56 909.665 1130.52 911.769C1125.49 913.856 1117.65 935.156 1108.71 945.363C1099.71 955.6 1063.93 952.956 1061.91 949.957C1059.85 946.924 1057.65 937.352 1065.68 934.226C1073.71 931.087 1080.73 925.966 1080.73 925.966C1080.73 925.966 1099.42 932.341 1108.4 919.131C1117.3 905.846 1140.19 877.308 1140.19 877.308V877.309Z" fill="black"/>
<path d="M1115.17 585.022C1121.31 609.601 1127.47 709.456 1141.27 734.035C1160.88 768.869 1185.47 843.883 1194.29 886.915C1199.86 913.98 1221.19 970.636 1241.15 947.577C1255.68 930.794 1229.88 902.115 1226.57 885.74C1218.67 847.008 1223.19 818.734 1218.48 792.423C1212.71 760.127 1208.72 746.689 1198.88 722.128C1189.69 699.096 1173.55 597.321 1173.55 597.321L1115.17 585.022Z" fill="#EAC4B2"/>
<path d="M1240.66 911.428C1244.14 931.008 1238.94 932.759 1233.19 935.047C1227.4 937.384 1209.54 931.009 1204.95 917.198C1210.7 945.968 1213.59 948.875 1219.33 955.79C1225.13 962.704 1240.66 966.724 1245.28 964.418C1254.75 959.67 1259.65 946.569 1253.92 932.759C1248.15 918.899 1240.66 911.428 1240.66 911.428Z" fill="#232121"/>
<path d="M1070.52 401.632C1070.52 401.632 1060 398.628 1062.54 390.262C1064.98 381.818 1076.48 348.654 1074.14 341.074C1071.84 333.528 1065.65 320.305 1073.3 308.857C1078.76 300.737 1089.45 300.162 1102.49 285.037C1102.49 285.037 1118.96 293.976 1128.61 291.192C1143.03 287.031 1151.82 289.136 1179.76 262.005C1183.99 266.074 1194 263.802 1203.99 275.339C1212.34 293.762 1199.21 317.412 1188.18 347.523C1176.29 379.977 1154.47 424.32 1147.17 425.96L1150.98 428.126C1182.63 447.523 1181.6 493.984 1181.6 521.623C1181.6 549.28 1190.04 673.788 1214.24 716.431C1218.37 723.625 1186.21 707.136 1170.08 707.136C1153.98 707.136 1155.11 711.762 1141.27 711.762C1127.47 711.762 1116.47 743.781 1097.85 733.417C1079.93 723.456 1072.22 725.28 1064.55 727.091C1060.47 728.051 1056.4 729.024 1050.8 728.222C1032.36 534.632 1051.39 447.891 1070.52 401.632Z" fill="#CE0000"/>
<path d="M1060.86 518.625C1061.77 481.766 1065.17 454.127 1074.78 414.048C1077.71 401.662 1116.23 357.283 1139.74 307.328C1157.62 269.341 1177.71 269.6 1189.71 269.881C1191.41 269.912 1192.98 269.96 1194.32 269.881C1198.7 275.695 1200.53 273.485 1202.17 271.258C1203.54 269.386 1204.79 267.514 1207.33 270.469C1215.68 288.892 1201.51 319.683 1190.52 349.848C1178.64 382.311 1156.77 426.623 1149.51 428.251L1153.3 430.43C1184.92 449.827 1183.93 496.293 1183.93 523.963C1183.93 551.602 1197.71 676.312 1221.9 718.973C1226.01 726.163 1192.02 733.885 1175.86 733.885C1159.74 733.885 1124.46 746.52 1075.63 726.04C1073.94 709.849 1058.23 622.331 1060.86 518.627V518.625Z" fill="#AA0202"/>
<path d="M1093.21 271.103C1085.34 278.079 1067.26 308.546 1062.91 320.752C1058.55 332.971 1065.8 348.886 1062.31 369.813C1058.81 390.71 1048.81 432.269 1048.81 432.269L1069.54 441.038C1069.54 441.038 1100.25 332.304 1099.17 317.301C1096.21 275.339 1116.2 251.982 1116.2 254.753C1116.2 257.366 1093.21 271.103 1093.21 271.103Z" fill="#232121"/>
<path d="M1243.96 580.646C1245.6 583.184 1243.83 590.792 1224.95 589.555C1206.12 588.301 1116.71 597.307 1099.78 601.205C1073.09 607.312 1080.7 597.242 1082.12 588.135C1082.12 588.135 1080.11 529.45 1071.7 518.19C1061.35 504.411 1091.98 475.253 1105.52 470.353C1119.09 465.508 1191.95 461.408 1201.34 461.658C1220.15 462.122 1251.01 493.116 1245.46 500.942C1238.26 511.043 1238.42 571.847 1243.96 580.646Z" fill="black"/>
<path d="M1099.79 601.205C1073.09 607.312 1080.7 597.242 1082.12 588.135C1082.12 588.135 1080.11 529.45 1071.7 518.19C1061.35 504.41 1091.98 475.253 1105.52 470.352C1112.21 468.029 1133.15 465.771 1153.86 464.18L1165.54 593.068C1137.43 595.711 1108.68 599.145 1099.79 601.205Z" fill="#232121"/>
<path d="M1117.68 503.898C1117.91 503.898 1118.15 503.898 1118.39 503.867C1122.21 503.499 1125.01 500.11 1124.64 496.225L1123.82 487.768C1123.45 484.164 1120.4 481.472 1116.86 481.472C1116.63 481.472 1116.4 481.489 1116.16 481.503C1112.33 481.889 1109.51 485.322 1109.89 489.158L1110.75 497.638C1111.07 501.224 1114.16 503.899 1117.68 503.899V503.898Z" fill="#0D0F12"/>
<path d="M1190.9 490.503C1191.3 494.357 1194.74 497.141 1198.56 496.781C1202.41 496.382 1205.23 492.962 1204.84 489.143L1203.97 480.651C1203.6 476.832 1200.18 474.018 1196.38 474.404C1192.51 474.771 1189.7 478.178 1190.08 482.028L1190.9 490.503H1190.9Z" fill="#232121"/>
<path d="M1107.22 458.488C1107.19 461.719 1111.37 483.76 1113.63 490.428C1114.29 492.406 1122.27 493.769 1121.14 485.386C1120.31 479.226 1118.13 455.656 1118.13 455.656L1107.22 458.488ZM1209 266.956C1197.34 263.834 1170.08 244.451 1170.08 244.451C1170.08 244.451 1153.41 266.031 1119.23 294.117C1102.29 308.037 1091.58 318.078 1085.92 329.846C1081.6 338.803 1083.96 359.204 1080.48 374.023C1076.98 388.855 1074.6 399.76 1071.99 406.735C1069.38 413.712 1062.91 441.258 1062.91 441.258C1062.91 441.258 1179.35 454.126 1181.96 453.258C1184.59 452.394 1169.7 412.115 1174.92 396.449C1180.17 380.765 1209 266.955 1209 266.955L1209 266.956Z" fill="black"/>
<path d="M1213.08 276.544C1191.74 278.556 1188.32 300.816 1191.78 322.08C1195.25 343.332 1179.64 393.432 1174.07 399.93C1168.49 406.423 1104.15 438.517 1092.55 436.846C1080.96 435.132 1075.05 426.192 1065.9 428.727C1056.74 431.296 1049.87 439.367 1047.3 443.949C1043.52 450.631 1044.01 462.197 1052.53 459.988C1058.38 458.489 1056.23 457.296 1067.2 456.709C1078.1 456.104 1081.58 456.617 1098.04 458.195C1114.54 459.756 1183.9 445.064 1202.17 426.022C1216.53 411.018 1216.3 339.666 1214.8 307.573C1212.71 263.554 1213.08 276.545 1213.08 276.545L1213.08 276.544Z" fill="#EAC4B2"/>
<path d="M1203.48 266.105C1213.69 265.535 1221.19 274.212 1228.02 299.747C1234.8 325.316 1233.68 419.371 1223.49 427.864C1213.25 436.369 1137.34 465.587 1118.61 463.049C1119.46 451.11 1110.74 426.719 1110.74 426.719C1110.74 426.719 1173.25 401.474 1175.81 392.1C1178.34 382.744 1173.87 308.423 1178.98 293.096C1184.08 277.786 1188.12 266.942 1203.48 266.105H1203.48Z" fill="#232121"/>
<path d="M1154.51 398.677L1156.26 398.83C1176.77 400.685 1188.15 418.893 1191.66 434.945C1195.4 451.093 1200.97 476.321 1201.14 481.674C1201.2 484.581 1199.21 487.071 1196.64 487.225H1196.13C1193.81 487.057 1191.91 484.922 1191.85 482.261C1191.63 475.72 1185.67 451.373 1182.35 437.237C1178.82 423.005 1171.18 411.001 1155.28 409.287L1153.81 409.195C1144.81 408.682 1138.34 410.725 1133.41 414.39C1128.08 416.354 1121.87 418.196 1116.61 419.941C1123.6 407.879 1136.01 397.208 1154.5 398.677H1154.51Z" fill="black"/>
<path d="M1134.36 223.682C1155.81 213.238 1171.38 192.636 1173.16 170.192C1175.68 137.437 1154.93 119.895 1127.86 116.523C1100.89 113.121 1084.54 144.891 1082.7 174.419C1081.56 192.25 1085.77 235.56 1104.47 236.581C1119.03 237.384 1124.6 228.431 1134.36 223.683V223.682Z" fill="#EAC4B2"/>
<path d="M1097.22 149.406C1103.42 147.148 1112 142.289 1117.46 132.579L1132.05 116.939C1127.67 114.48 1118.89 115.812 1108.24 119.416C1095.28 125.09 1086.91 130.987 1078.69 143.916C1069.87 157.776 1069.33 168.521 1069.7 182.521C1070.13 198.528 1080.4 204.873 1069.28 215.465C1058.13 226.106 1072.99 232.046 1078.16 241.11C1083.36 250.177 1060.37 244.218 1094.63 249.492C1075.31 243.231 1090.98 253.903 1092.81 244.652C1097.2 222.502 1076.8 224.343 1081.87 209.945C1086.97 195.529 1068.25 192.868 1077.03 191.368C1085.8 189.882 1081.73 168.784 1080.28 163.124C1078.32 155.53 1094.45 150.41 1097.22 149.406H1097.22Z" fill="#BA784A"/>
<path d="M1175.56 132.456C1157.79 111.45 1126.72 114.357 1124.61 115.856C1116.77 121.411 1106.88 131.911 1106.88 131.911C1101.52 137.913 1096.08 145.923 1096.6 146.915C1107.52 168.355 1137.8 164.72 1135.02 169.964C1131 177.185 1136.3 183.634 1138.79 185.213C1141.27 186.791 1144.29 196.642 1140.82 201.483C1135.47 208.893 1135.02 221.02 1141.64 226.912C1144.78 229.696 1135.35 254.767 1142.03 257.182C1155.69 262.145 1144.06 271.72 1139.21 280.165C1134.74 287.974 1146.53 305.455 1125.89 315.306C1162.21 312.259 1152.05 291.455 1160.4 285.624C1168.76 279.81 1179.49 280.845 1173.52 267.279C1172.42 264.728 1184.83 244.607 1183.59 242.222C1189.65 239.934 1185.62 231.319 1185.62 231.319C1185.62 231.319 1195.11 155.578 1175.56 132.455L1175.56 132.456Z" fill="#A0593A"/>
<path d="M809.124 787.489C818.205 760.376 828.938 753.431 836.873 753.51C848.058 752.953 860.506 768.68 861.588 778.164H861.557C861.929 780.483 864.065 782.061 866.336 781.737C868.69 781.382 870.268 779.247 869.926 776.941C867.638 763.625 854.8 745.68 836.872 745.079C823.308 745.158 810.426 756.724 801.144 784.859C800.416 787.042 801.591 789.423 803.805 790.181L805.134 790.396C806.883 790.396 808.505 789.282 809.123 787.489H809.124Z" fill="#6A7B9B"/>
<path d="M787.458 961.744C780.421 958.851 761.721 949.476 761.721 942.487C761.721 935.433 766.127 798.565 768.631 792.751C773.476 781.549 894.275 777.62 900.321 778.225C904.977 778.69 916.391 785.183 916.391 785.183L802.075 890.979L787.458 961.744Z" fill="#8FA4BC"/>
<path d="M783.077 955.93C783.236 960.227 786.607 963.138 790.566 962.424L919.437 939.423C922.887 938.822 925.396 935.14 925.097 931.15L918.293 789.393C917.968 785.605 915.03 782.882 911.672 783.285L787.304 795.285C783.468 795.75 779.246 799.526 779.43 803.625L783.078 955.93H783.077Z" fill="#6A7B9B"/>
<path d="M821.499 794.527C830.565 767.444 841.268 760.456 849.234 760.548C860.414 759.974 872.884 775.705 873.967 785.202H873.936C874.274 787.521 876.44 789.113 878.715 788.805C881.034 788.42 882.643 786.284 882.271 783.965C879.995 770.676 867.145 752.705 849.234 752.134C835.608 752.239 822.77 763.718 813.475 791.883C812.747 794.08 813.953 796.46 816.163 797.25L817.495 797.42C819.241 797.42 820.898 796.29 821.499 794.527Z" fill="#6A7B9B"/>
<path d="M805.679 860.648C805.986 860.648 806.28 860.635 806.574 860.604L899.484 849.345C904.824 848.911 908.753 844.206 908.301 838.87L907.143 807.413C906.722 802.354 902.487 798.547 897.52 798.547C897.243 798.547 896.949 798.565 896.669 798.578L804.162 806.575C798.827 807.04 794.868 811.726 795.345 817.062L796.072 851.786C796.489 856.828 800.711 860.647 805.678 860.647L805.679 860.648Z" fill="#8294B3"/>
<path d="M115.143 102.865C112.28 99.2474 103.634 86.9622 103.634 86.9622C103.634 86.9622 88.5386 73.0595 85.6317 70.166C82.7997 67.2899 59.5715 53.462 58.8429 57.7801C58.1459 62.1078 76.4109 74.4976 76.4109 74.4976C76.4109 74.4976 62.6176 75.6592 59.7059 75.6592C56.847 75.6592 54.4316 81.3942 53.1337 85.5549C50.4726 93.9558 51.9415 94.7757 52.4061 94.9158C54.8224 95.6262 57.2954 88.0941 60.3424 85.5549C63.0036 83.2969 68.9882 84.0861 68.9882 84.0861C68.9882 84.0861 62.8461 84.6304 60.1101 88.1853C56.5677 92.7011 52.5472 99.5411 54.0947 100.948C56.7559 103.328 59.5398 97.3572 62.2758 95.4103C64.9984 93.4461 66.8397 93.4768 66.8397 93.4768C66.8397 93.4768 56.2422 102.123 59.1366 105.012C62.0128 107.906 65.63 100.435 69.2339 101.163C72.8243 101.89 83.4353 113.675 91.3707 117.28C99.3195 120.897 116.629 134.602 116.629 134.602C116.629 134.602 136.841 127.381 133.904 118.735C131.041 110.072 115.142 102.864 115.142 102.864L115.143 102.865Z" fill="#EAC4B2"/>
<path d="M364.194 130.724C378.299 123.993 396.55 116.895 415.097 121.117C423.497 120.56 439.027 122.538 445.906 127.939C458.265 137.681 465.877 129.452 473.16 126.545C478.495 124.397 459.024 169.499 450.097 171.819C445.055 173.147 439.224 175.392 435.094 177.076C426.882 191.509 413.982 204.452 399.536 207.131C368.635 212.869 318.906 199.44 318.906 199.44C322.138 194.727 319.06 152.159 364.193 130.723L364.194 130.724Z" fill="#2B55B2"/>
<path d="M406.794 123.682C408.881 122.524 403.19 118.61 409.021 102.804C414.821 86.9986 428.987 64.9407 417.031 38.4456C411.805 26.8756 384.951 95.0396 385.371 103.765C385.819 112.503 401.813 126.485 406.794 123.683V123.682Z" fill="black"/>
<path d="M439.152 410.352C452.761 398.953 492.497 374.129 492.497 374.129C510.719 416 523.631 434.497 529.803 488.294C533.223 518.362 551.984 677.704 559.732 701.337C599.687 822.956 589.322 922.069 589.322 922.069L549.047 921.311L519.377 923.819C519.377 923.819 474.696 753.401 470.982 738.214C467.238 723.101 423.31 589.14 423.31 589.14C423.31 589.14 437.358 687.263 440.993 722.295C449.963 808.602 449.358 922.706 449.358 922.706L361.442 915.761C361.442 915.761 364.288 853.954 352.595 772.023C351.017 760.856 352.721 740.766 351.052 729.49C341.507 664.293 332.287 659.392 331.081 392.565L439.152 410.353V410.352Z" fill="#6A7B9B"/>
<path d="M352.596 769.733C351.018 758.553 345.081 733.356 343.38 722.078C335.492 668.19 333.045 515.915 332.024 448.093L357.283 428.359C345.761 502.135 347.939 702.683 369.752 735.46C381.287 752.752 386.036 776.708 391.297 807.566C397.729 845.105 388.483 889.511 388.158 915.545L361.443 913.44C361.443 913.44 364.289 851.664 352.596 769.733ZM413.105 531.664C404.642 518.594 460.587 714.007 464.038 732.444C467.519 750.91 471.355 768.961 477.121 775.875C482.89 782.789 512.094 901.87 514.787 915.76C517.445 929.619 549.047 921.311 549.047 921.311C549.047 921.311 511.709 800.064 497.863 764.336C484.036 728.607 417.124 537.85 413.104 531.664H413.105Z" fill="#8FA4BC"/>
<path d="M530.886 905.29C527.112 920.184 518.233 938.805 500.353 944.561C489.173 948.165 484.794 964.185 489.419 969.924C513.038 999.313 558.556 973.375 558.556 973.375C558.556 973.375 564.932 961.278 577.567 958.371C602.698 952.632 589.707 925.054 586.09 910.173C582.359 895.279 530.886 905.289 530.886 905.289V905.29ZM381.054 898.064C377.283 912.945 374.591 918.592 360.328 925.734C349.779 931.009 334.916 928.812 334.189 943.417C332.952 966.54 382.045 959.284 382.045 959.284C382.045 959.284 406.996 950.484 434.85 948.66C449.144 947.7 436.753 918.329 433.101 903.461C429.453 888.568 381.054 898.064 381.054 898.064Z" fill="black"/>
<path d="M596.052 937.073C596.052 937.073 605.022 904.825 602.392 901.919C585.455 883.215 512.464 889.296 509.588 897.881C506.729 906.448 519.952 925.612 519.952 925.612C519.952 925.612 557.926 916.103 565.562 921.824C573.156 927.532 596.051 937.073 596.051 937.073H596.052Z" fill="#6A7B9B"/>
<path d="M527.421 936.735C526.926 927.203 513.641 916.826 520.134 914.537C526.724 912.296 558.926 907.702 553.929 922.288C549.013 936.857 547.497 938.498 544.665 938.65C541.819 938.804 527.421 936.734 527.421 936.734V936.735Z" fill="black"/>
<path d="M447.242 931.333C452.284 928.843 459.089 910.761 455.997 906.447C445.247 891.535 366.608 880.013 358.01 894.416C355.041 899.41 362.617 919.779 366.068 918.635C406.978 904.995 447.241 931.332 447.241 931.332L447.242 931.333Z" fill="#6A7B9B"/>
<path d="M373.324 926.028C373.324 916.501 364.227 909.201 370.291 905.878C375.517 903.015 406.313 898.744 400.591 913.037C394.914 927.3 393.291 928.892 390.446 928.892C387.614 928.892 373.324 926.029 373.324 926.029V926.028Z" fill="black"/>
<path d="M294.842 175.498C262.621 168.68 208.194 148.183 195.96 147.056C180.645 145.631 147.236 109.792 119.952 104.193C111.043 117.232 95.2983 127.15 105.536 149.717C115.778 172.283 144.544 188.138 166.615 207.933C191.935 230.592 310.353 264.343 309.779 236.502C309.301 208.661 294.841 175.498 294.841 175.498H294.842Z" fill="#2B55B2"/>
<path d="M337.393 166.495L349.516 154.495L340.33 110.349L400.296 104.982C400.296 104.982 404.224 118.999 409.297 136.072C411.866 150.072 431.864 148.572 432.622 153.224C433.613 159.428 423.187 182.907 410.845 201.996C407.779 215.899 400.992 230.486 390.15 228.04L387.782 227.128C385.849 228.027 384.008 228.522 382.385 228.198L382.324 223.774C364.041 209.634 337.392 166.496 337.392 166.496L337.393 166.495Z" fill="#D6A092"/>
<path fill-rule="evenodd" clip-rule="evenodd" d="M346.69 140.931L346.225 138.655C345.87 138.98 345.559 139.274 345.251 139.554L346.69 140.931ZM377.745 107.009L385.869 106.285C385.589 105.404 385.418 104.567 385.374 103.764C385.326 102.773 385.62 101.042 386.207 98.7346C383.532 101.286 380.67 104.101 377.746 107.008L377.745 107.009Z" fill="url(#paint0_linear_1618_635)"/>
<path fill-rule="evenodd" clip-rule="evenodd" d="M422.509 148.463C422.57 148.34 422.632 148.23 422.68 148.138C422.447 148.169 422.215 148.182 421.983 148.182C421.873 148.182 421.781 148.182 421.689 148.169C421.966 148.278 422.229 148.371 422.509 148.463ZM417.313 146.266C413.135 142.895 409.329 135.376 406.502 126.576C407.383 129.579 408.308 132.762 409.299 136.072C410.242 141.193 413.508 144.241 417.313 146.266Z" fill="url(#paint1_linear_1618_635)"/>
<path fill-rule="evenodd" clip-rule="evenodd" d="M404.859 120.929C401.654 108.697 400.374 95.2229 402.413 87.1954C402.632 86.3141 402.461 85.8975 401.966 85.8975C400.155 85.8975 393.956 91.2946 386.204 98.7346C385.616 101.041 385.322 102.772 385.37 103.764C385.415 104.567 385.585 105.404 385.866 106.285L400.295 104.983C400.295 104.983 402.105 111.45 404.858 120.929H404.859Z" fill="url(#paint2_linear_1618_635)"/>
<path fill-rule="evenodd" clip-rule="evenodd" d="M405.215 197.34C412.594 193.706 419.999 153.768 422.508 148.463C422.227 148.371 421.963 148.279 421.688 148.169C420.202 148.108 418.733 147.428 417.312 146.266C413.507 144.241 410.24 141.194 409.298 136.072C408.307 132.762 407.382 129.579 406.501 126.576C405.913 124.752 405.356 122.862 404.861 120.928C402.108 111.449 400.297 104.982 400.297 104.982L385.868 106.284L377.744 107.008C365.621 119.061 352.349 132.885 346.224 138.654L346.689 140.93L405.216 197.339L405.215 197.34Z" fill="url(#paint3_linear_1618_635)"/>
<path d="M359.881 186.852C341.783 180.447 345.588 159.845 345.588 159.845C345.588 159.845 340.625 160.217 312.692 184.625C299.065 196.533 361.117 369.472 375.551 431.699C376.555 435.983 394.527 435.347 441.887 429.902C435.578 380.797 392.085 217.587 385.849 191.386C385.402 189.452 366.887 189.312 359.88 186.852H359.881Z" fill="#232121"/>
<path d="M421.779 147.318C421.779 147.318 436.177 149.423 468.319 151.155C481.885 151.896 471.073 182.258 474.335 197.603C476.842 209.34 476.628 246.695 475.544 260.213C474.492 273.748 504.824 365.868 509.647 389.15C512.338 402.14 446.511 428.495 401.286 432.55C395.003 383.845 370.258 192.561 374.467 191.552C412.282 182.569 421.779 147.318 421.779 147.318Z" fill="black"/>
<path d="M349.395 155.083L342.744 159.862C342.744 159.862 333.895 195.744 376.043 196.397C377.977 190.223 376.306 188.026 376.306 188.026C376.306 188.026 359.247 193.41 349.518 175.403C345.466 167.963 349.395 155.082 349.395 155.082V155.083Z" fill="white"/>
<path d="M374.885 188.321C378.147 187.422 411.293 175.037 416.366 159.025C419.443 149.204 415.857 144.022 415.857 144.022L425.756 147.038C425.756 147.038 430.224 168.276 406.066 184.393C390.878 194.525 375.423 196.068 375.423 196.068L374.884 188.321H374.885Z" fill="#D9E1E8"/>
<path d="M330.909 164.703C325.5 183.788 332.317 200.278 348.759 229.263C364.894 257.6 392.41 287.9 391.077 304.715C388.279 340.009 404.458 445.047 404.52 455.546C386.763 460.484 331.545 457.357 323.114 453.214C314.687 449.022 310.991 411.141 311.903 361.817C312.631 321.646 302.143 295.415 295.738 276.531C289.367 257.648 276.807 180.758 288.065 176.628C302.652 171.244 330.909 164.703 330.909 164.703Z" fill="#4686D3"/>
<path d="M322.484 448.636C326.07 456.072 322.295 466.915 322.295 466.915C322.295 466.915 338.939 487.938 396.939 478.021C403.112 476.969 384.523 449.254 384.523 449.254L322.484 448.636Z" fill="#4686D3"/>
<path d="M380.594 455.161C368.356 448.865 371.171 328.872 369.518 285.734C367.909 242.596 370.895 246.866 383.776 228.087C397.187 208.507 451.897 168.521 444.193 149.821C467.72 154.17 483.371 155.841 503.431 163.741C503.027 191.385 488.813 252.666 495.157 261.063C495.574 284.651 496.148 309.523 504.005 329.538C511.861 349.553 541.22 415.32 519.082 430.985C512.155 435.764 400.589 465.507 380.593 455.161H380.594Z" fill="#2B55B2"/>
<path d="M519.376 408.094C517.57 414.25 524.418 453.864 524.418 453.864C524.418 453.864 432.854 483.252 383.884 478.688C379.29 453.631 378.426 450.786 378.426 450.786L519.375 408.095L519.376 408.094Z" fill="#2B55B2"/>
<path d="M495.545 336.575C480.168 345.424 471.43 352.565 464.998 354.454C459.662 356.077 451.292 359.636 451.292 359.636C451.292 359.636 459.258 388.126 469.931 394.172C473.736 396.326 477.261 398.29 483.312 389.503C489.327 380.717 492.761 379.125 496.457 376.477C500.108 373.864 510.859 363.315 510.859 363.315L495.545 336.574V336.575Z" fill="#EAC4B2"/>
<path d="M497.321 162.892C505.81 157.157 517.986 176.659 524.606 187.949C528.657 194.986 580.069 295.262 583.55 326.614C585.716 346.054 531.858 404.368 502.548 391.052C490.083 383.734 470.344 347.523 470.344 347.523C470.344 347.523 506.849 308.037 507.932 305.827C511.072 299.409 491.461 280.936 489.926 274.781C476.873 222.519 492.617 166.048 497.321 162.891V162.892Z" fill="#4686D3"/>
<path d="M388.788 298.664C382.65 261.791 334.592 228.07 328.314 199.966C322.049 171.879 299.854 161.221 299.854 161.221C299.854 161.221 310.758 147.985 329.147 138.176C344.322 130.149 370.877 122.695 370.694 126.637C370.571 129.609 338.088 149.962 334.948 162.383C331.02 177.864 336.373 188.755 342.451 205.056C348.483 221.344 385.729 268.393 387.057 278.74C388.39 289.074 388.789 298.663 388.789 298.663L388.788 298.664Z" fill="#2B55B2"/>
<path d="M312.893 71.0952L310.6 59.867C311.81 40.4222 323.437 33.5255 340.777 29.0529C346.95 26.2554 355.254 24.9403 366.545 25.4663C402.647 27.2155 410.783 48.6821 409.841 73.9407C416.365 75.0408 411.678 83.8412 410.148 92.2057C408.758 99.7858 405.185 104.737 400.296 107.043C394.281 136.181 377.313 149.606 359.851 148.414C357.514 148.247 353.523 149.098 351.296 148.277C331.575 144.937 323.083 127.053 318.304 106.45C314.529 105.244 312.21 99.2463 309.583 89.3775C306.891 79.477 305.821 71.1557 312.893 71.0943V71.0952Z" fill="#EAC4B2"/>
<path d="M347.216 22.4204L348.159 20.0396C348.159 20.0396 350.54 14.1471 348.698 14.1471C347.646 14.1605 341.662 5.93042 334.748 12.4594L333.139 9.72339C333.139 9.72339 328.732 13.836 325.146 16.9004C321.414 19.9609 326.382 18.0274 326.382 18.0274C326.382 18.0274 326.645 14.796 318.336 24.6783C313.294 26.366 310.094 38.4889 310.278 47.7711C309.813 50.5427 309.028 53.6944 308.857 57.0841C307.945 70.9562 312.895 71.0963 312.895 71.0963L315.614 72.8454C315.614 72.8454 309.783 49.4108 322.655 41.414C332.086 35.5695 358.555 40.239 358.555 40.239L347.216 22.4204Z" fill="#232121"/>
<path d="M416.059 35.2747C413.831 26.5675 409.483 15.9393 396.185 12.7521C393.168 6.28934 357.515 1.08998 356.462 2.1287C355.891 2.74694 364.49 6.11846 364.042 10.091C360.745 3.81254 325.56 -0.269383 324.074 0.330619C324.074 0.330619 345.404 11.6558 345.746 16.6804L346.579 17.1623C345.79 9.04265 325.885 15.4919 320.392 0.255736C319.576 -1.98875 320.392 15.3815 332.629 19.187C329.367 20.1297 317.008 10.4318 316.854 5.0471C310.601 18.7223 317.546 26.794 318.555 31.3137C314.982 41.7528 324.833 46.7342 339.249 48.4958C343.717 49.0354 361.662 43.8398 372.952 44.2555C381.213 47.5042 392.813 53.5685 394.944 57.6063C397.887 63.0341 399.6 75.7484 399.6 75.7484L406.098 74.1519L414.494 77.6818C414.494 77.6818 421.114 54.6197 416.059 35.2709V35.2747Z" fill="black"/>
<path d="M454.784 349.193C457.028 355.121 461.527 379.713 483.37 395.164C492.726 401.815 494.182 400.872 492.818 403.007C491.459 405.186 484.032 410.553 479.564 409.641C467.204 407.181 436.176 368.033 441.144 359.404C446.032 350.758 454.784 349.192 454.784 349.192V349.193ZM369.515 290.93C353.956 241.36 408.567 191.803 418.547 177.387C428.477 162.941 437.786 155.518 459.023 141.237C475.961 129.838 475.25 126.005 475.25 126.005L477.692 139.925C477.692 139.925 481.436 155.157 452.526 168.74C441.653 173.843 415.574 197.445 404.131 210.808C365.491 255.757 369.516 290.929 369.516 290.929L369.515 290.93Z" fill="#4686D3"/>
<path d="M328.792 357.222C325.714 364.895 314.981 391.793 309.615 392.565C304.2 393.323 313.079 424.505 313.079 424.505C313.079 424.505 338.013 379.512 336.496 369.502C334.948 359.511 328.793 357.221 328.793 357.221L328.792 357.222Z" fill="#2B55B2"/>
</g>
<defs>
<linearGradient id="paint0_linear_1618_635" x1="410.057" y1="203.96" x2="366.608" y2="94.644" gradientUnits="userSpaceOnUse">
<stop stop-color="white"/>
<stop offset="0.639" stop-color="#C6C0B9"/>
<stop offset="1" stop-color="#C6C0B9"/>
</linearGradient>
<linearGradient id="paint1_linear_1618_635" x1="410.058" y1="203.961" x2="366.603" y2="94.6442" gradientUnits="userSpaceOnUse">
<stop stop-color="#2B55B2"/>
<stop offset="0.639" stop-color="#214081"/>
<stop offset="1" stop-color="#214081"/>
</linearGradient>
<linearGradient id="paint2_linear_1618_635" x1="410.045" y1="203.961" x2="366.675" y2="94.6441" gradientUnits="userSpaceOnUse">
<stop/>
<stop offset="0.639"/>
<stop offset="1"/>
</linearGradient>
<linearGradient id="paint3_linear_1618_635" x1="410.056" y1="203.961" x2="366.606" y2="94.6442" gradientUnits="userSpaceOnUse">
<stop stop-color="#D6A092"/>
<stop offset="0.639" stop-color="#A6786A"/>
<stop offset="1" stop-color="#A6786A"/>
</linearGradient>
<clipPath id="clip0_1618_635">
<rect width="1600" height="984" fill="white" transform="matrix(-1 0 0 1 1600 0)"/>
</clipPath>
</defs>
</svg>
