<svg class="icon" xmlns="http://www.w3.org/2000/svg" width="31" height="30" viewBox="0 0 31 30" fill="none">
                        <path d="M3.54251 27.0644L5.22626 20.9175C4.18751 19.1187 3.64126 17.0775 3.64189 14.9869C3.64501 8.44625 8.96751 3.125 15.5088 3.125C18.6831 3.12625 21.6619 4.36188 23.9025 6.60375C26.1425 8.84625 27.3763 11.8263 27.375 14.9963C27.3725 21.5369 22.0488 26.8587 15.5088 26.8587H15.5038C13.5181 26.8581 11.5663 26.36 9.83314 25.4144L3.54251 27.0644Z" fill="white"></path>
                        <path d="M3.54251 27.3769C3.46001 27.3769 3.38001 27.3444 3.32064 27.2844C3.24251 27.205 3.21189 27.0894 3.24126 26.9825L4.89064 20.96C3.86814 19.1437 3.32876 17.0812 3.33001 14.9875C3.33251 8.27375 8.79564 2.8125 15.5088 2.8125C18.765 2.81375 21.8244 4.08188 24.1238 6.38313C26.4231 8.685 27.6888 11.7437 27.6875 14.9963C27.685 21.7094 22.2213 27.1712 15.5088 27.1712C13.5156 27.1706 11.5438 26.6787 9.79376 25.7481L3.62189 27.3662C3.59564 27.3737 3.56939 27.3769 3.54251 27.3769Z" fill="white"></path>
                        <path d="M15.5087 3.125C18.6831 3.12625 21.6619 4.36187 23.9025 6.60375C26.1425 8.84625 27.3762 11.8262 27.375 14.9962C27.3725 21.5369 22.0487 26.8587 15.5087 26.8587H15.5037C13.5181 26.8581 11.5662 26.36 9.83312 25.4144L3.54249 27.0644L5.22624 20.9175C4.18749 19.1187 3.64124 17.0775 3.64187 14.9869C3.64499 8.44625 8.96749 3.125 15.5087 3.125ZM15.5087 2.5C8.62374 2.5 3.01999 8.10125 3.01687 14.9869C3.01624 17.0912 3.54749 19.165 4.55499 21.0006L2.93937 26.9C2.88062 27.1156 2.94062 27.3456 3.09812 27.5044C3.21687 27.6244 3.37749 27.69 3.54249 27.69C3.59562 27.69 3.64874 27.6831 3.70124 27.6694L9.75562 26.0819C11.5231 26.9994 13.5044 27.4837 15.5037 27.4844C22.3937 27.4844 27.9975 21.8825 28.0006 14.9969C28.0019 11.66 26.7037 8.5225 24.3456 6.1625C21.9862 3.80187 18.8481 2.50125 15.5087 2.5Z" fill="#CFD8DC"></path>
                        <path d="M22.485 8.02C20.6225 6.15625 18.1469 5.12938 15.5119 5.12875C10.0719 5.12875 5.64749 9.55125 5.64499 14.9875C5.64436 16.8506 6.16561 18.6644 7.15311 20.235L7.38811 20.6081L6.39124 24.2463L10.1244 23.2675L10.485 23.4813C11.9987 24.38 13.735 24.855 15.505 24.8556H15.5087C20.945 24.8556 25.3694 20.4325 25.3712 14.9956C25.3719 12.3613 24.3475 9.88375 22.485 8.02Z" fill="#40C351"></path>
                        <path fill-rule="evenodd" clip-rule="evenodd" d="M12.5425 10.0281C12.3206 9.53438 12.0869 9.52438 11.875 9.51563C11.7019 9.50813 11.5044 9.50876 11.3069 9.50876C11.1094 9.50876 10.7881 9.58313 10.5162 9.88001C10.2444 10.1769 9.47812 10.8938 9.47812 12.3525C9.47812 13.8113 10.5406 15.2213 10.6887 15.4188C10.8369 15.6163 12.74 18.7056 15.7537 19.8944C18.2581 20.8819 18.7681 20.6856 19.3119 20.6363C19.8556 20.5869 21.0662 19.9194 21.3131 19.2269C21.56 18.5344 21.56 17.9413 21.4862 17.8175C21.4119 17.6938 21.2144 17.62 20.9181 17.4713C20.6219 17.3225 19.1637 16.6056 18.8919 16.5069C18.62 16.4081 18.4225 16.3588 18.2244 16.6556C18.0269 16.9519 17.4587 17.62 17.2856 17.8175C17.1125 18.0156 16.9394 18.0406 16.6431 17.8919C16.3469 17.7431 15.3919 17.4306 14.2587 16.4206C13.3775 15.635 12.7825 14.6644 12.6094 14.3675C12.4362 14.0713 12.5906 13.9106 12.7394 13.7625C12.8725 13.6294 13.0356 13.4163 13.1844 13.2431C13.3325 13.07 13.3819 12.9463 13.4806 12.7488C13.5794 12.5506 13.53 12.3775 13.4556 12.2294C13.3825 12.0806 12.8062 10.6144 12.5425 10.0281Z" fill="white"></path>
                    </svg>
